<svg width="17" height="17" viewBox="0 0 17 17" fill="none" xmlns="http://www.w3.org/2000/svg">
<path d="M5.47722 10.9904H5.478C5.47865 10.9904 5.47929 10.9902 5.47994 10.9902H14.5098C14.7321 10.9902 14.9275 10.8428 14.9886 10.629L16.9808 3.65636C17.0237 3.50604 16.9936 3.34444 16.8996 3.21967C16.8055 3.09489 16.6582 3.02148 16.502 3.02148H4.3286L3.97257 1.4193C3.92186 1.19142 3.71979 1.0293 3.48633 1.0293H0.498047C0.222954 1.0293 0 1.25225 0 1.52734C0 1.80244 0.222954 2.02539 0.498047 2.02539H3.08685C3.14989 2.3093 4.79059 9.69259 4.88501 10.1174C4.35571 10.3474 3.98438 10.8752 3.98438 11.4883C3.98438 12.3121 4.65466 12.9824 5.47852 12.9824H14.5098C14.7849 12.9824 15.0078 12.7595 15.0078 12.4844C15.0078 12.2093 14.7849 11.9863 14.5098 11.9863H5.47852C5.20394 11.9863 4.98047 11.7629 4.98047 11.4883C4.98047 11.2141 5.20316 10.991 5.47722 10.9904ZM15.8417 4.01758L14.134 9.99414H5.87799L4.54987 4.01758H15.8417Z" fill="white"/>
<path d="M4.98041 14.4766C4.98041 15.3004 5.6507 15.9707 6.47455 15.9707C7.2984 15.9707 7.96869 15.3004 7.96869 14.4766C7.96869 13.6527 7.2984 12.9824 6.47455 12.9824C5.6507 12.9824 4.98041 13.6527 4.98041 14.4766ZM6.47455 13.9785C6.74912 13.9785 6.9726 14.202 6.9726 14.4766C6.9726 14.7511 6.74912 14.9746 6.47455 14.9746C6.19997 14.9746 5.9765 14.7511 5.9765 14.4766C5.9765 14.202 6.19997 13.9785 6.47455 13.9785Z" fill="white"/>
<path d="M12.0193 14.4766C12.0193 15.3004 12.6896 15.9707 13.5135 15.9707C14.3373 15.9707 15.0076 15.3004 15.0076 14.4766C15.0076 13.6527 14.3373 12.9824 13.5135 12.9824C12.6896 12.9824 12.0193 13.6527 12.0193 14.4766ZM13.5135 13.9785C13.7881 13.9785 14.0115 14.202 14.0115 14.4766C14.0115 14.7511 13.7881 14.9746 13.5135 14.9746C13.2389 14.9746 13.0154 14.7511 13.0154 14.4766C13.0154 14.202 13.2389 13.9785 13.5135 13.9785Z" fill="white"/>
</svg>
