<svg width="118" height="24" viewBox="0 0 118 24" fill="none" xmlns="http://www.w3.org/2000/svg">
<path d="M37.8799 19.39C37.2851 19.4222 36.6968 19.2531 36.2099 18.91C35.7969 18.6038 35.5612 18.1138 35.5799 17.6V8.33C35.5701 8.25047 35.5974 8.17084 35.6541 8.11418C35.7108 8.05751 35.7904 8.03015 35.8699 8.04H37.5499C37.7399 8.04 37.8299 8.14 37.8299 8.33V16.88C37.8299 17.26 37.9999 17.45 38.3499 17.45C38.4983 17.4561 38.6467 17.4393 38.7899 17.4C38.9899 17.4 39.0999 17.46 39.1099 17.64L39.2599 18.89C39.2745 18.9637 39.2565 19.0402 39.2105 19.0996C39.1644 19.159 39.095 19.1956 39.0199 19.2C38.652 19.3216 38.2674 19.3856 37.8799 19.39Z" fill="#696871"/>
<path fill-rule="evenodd" clip-rule="evenodd" d="M41.3299 18.32C43.0712 19.7587 45.5887 19.7587 47.3299 18.32V18.31C48.836 16.7394 48.836 14.2607 47.3299 12.69C45.5858 11.2592 43.074 11.2592 41.3299 12.69C39.7857 14.249 39.7857 16.7611 41.3299 18.32ZM45.7699 17C44.9583 17.7352 43.7215 17.7352 42.9099 17C42.1768 16.1571 42.1768 14.9029 42.9099 14.06C43.7215 13.3249 44.9583 13.3249 45.7699 14.06C46.503 14.9029 46.503 16.1571 45.7699 17Z" fill="#696871"/>
<path fill-rule="evenodd" clip-rule="evenodd" d="M57.9899 12.16C57.9899 11.97 57.8999 11.87 57.7099 11.87L56.0499 11.88C55.972 11.8734 55.8953 11.9023 55.841 11.9585C55.7867 12.0147 55.7606 12.0924 55.7699 12.17V12.33C55.1597 11.8632 54.4079 11.6197 53.6399 11.64C52.5864 11.6024 51.5623 11.9919 50.7999 12.72C49.3013 14.2704 49.3013 16.7296 50.7999 18.28C51.5588 19.0148 52.5844 19.4084 53.6399 19.37C54.3863 19.3912 55.1184 19.1624 55.7199 18.72V19.35C55.7403 19.8133 55.5705 20.2649 55.2499 20.6C54.8991 20.9202 54.4342 21.086 53.9599 21.06C53.5708 21.0678 53.1858 20.9785 52.8399 20.8C52.5561 20.6465 52.3389 20.3937 52.2299 20.09C52.1748 19.955 52.0456 19.865 51.8999 19.86H50.2199C49.9499 19.86 49.9499 19.95 49.9499 20.15C50.0906 20.9694 50.565 21.6936 51.2599 22.15C52.065 22.6719 53.0111 22.9337 53.9699 22.9C55.0315 22.9468 56.0714 22.5894 56.8799 21.9C57.6176 21.2539 58.0253 20.31 57.9899 19.33V12.16ZM55.1999 17C54.8533 17.39 54.3515 17.6061 53.8299 17.59C53.3028 17.6052 52.7952 17.3898 52.4399 17C52.0813 16.5882 51.8919 16.0558 51.9099 15.51C51.8879 14.9588 52.0816 14.4207 52.4499 14.01C52.8044 13.6191 53.3125 13.4034 53.8399 13.42C54.3567 13.4029 54.8545 13.6153 55.1999 14C55.8837 14.8831 55.8837 16.1169 55.1999 17Z" fill="#696871"/>
<path fill-rule="evenodd" clip-rule="evenodd" d="M60.6199 18.3201C62.364 19.7509 64.8758 19.7509 66.6199 18.3201V18.3101C68.126 16.7394 68.126 14.2607 66.6199 12.6901C64.8744 11.2631 62.3654 11.2631 60.6199 12.6901C59.1126 14.264 59.1126 16.7461 60.6199 18.3201ZM63.6299 17.55C63.0957 17.5665 62.5772 17.3684 62.1899 17.0001C61.4696 16.1524 61.4696 14.9077 62.1899 14.0601C62.5772 13.6917 63.0957 13.4936 63.6299 13.5101C64.1607 13.4963 64.6752 13.6942 65.0599 14.0601C65.7803 14.9077 65.7803 16.1524 65.0599 17.0001C64.6752 17.3659 64.1607 17.5638 63.6299 17.55Z" fill="#696871"/>
<path fill-rule="evenodd" clip-rule="evenodd" d="M69.4499 10.17C69.9967 10.6486 70.8132 10.6486 71.3599 10.17C71.6022 9.94142 71.7394 9.62308 71.7394 9.29002C71.7394 8.95695 71.6022 8.63861 71.3599 8.41002C70.8085 7.94422 70.0014 7.94422 69.4499 8.41002C69.2077 8.63861 69.0704 8.95695 69.0704 9.29002C69.0704 9.62308 69.2077 9.94142 69.4499 10.17ZM69.8999 18.91C70.3882 19.2504 70.9755 19.4192 71.5699 19.39C71.9608 19.3864 72.3487 19.3223 72.7199 19.2C72.795 19.1957 72.8644 19.159 72.9104 19.0996C72.9565 19.0402 72.9745 18.9638 72.9599 18.89L72.8099 17.64C72.7999 17.46 72.6899 17.4 72.4899 17.4C72.3432 17.4386 72.1916 17.4555 72.0399 17.45C71.6999 17.45 71.5299 17.26 71.5299 16.88V12.16C71.5299 11.97 71.4399 11.87 71.2499 11.87H69.5699C69.4904 11.8602 69.4108 11.8875 69.3541 11.9442C69.2974 12.0009 69.2701 12.0805 69.2799 12.16V17.6C69.2623 18.1113 69.4934 18.5995 69.8999 18.91Z" fill="#696871"/>
<path fill-rule="evenodd" clip-rule="evenodd" d="M81.9999 12.71C81.232 11.9778 80.2001 11.5881 79.1399 11.63C78.2142 11.6099 77.3209 11.9715 76.6699 12.63C76.3266 11.9592 75.6106 11.5636 74.8599 11.63C74.4919 11.6233 74.1258 11.6843 73.7799 11.81C73.6351 11.8521 73.5392 11.9896 73.5499 12.14V13.32C73.5499 13.48 73.6599 13.56 73.8799 13.56H74.2099C74.3725 13.5362 74.5369 13.5906 74.6531 13.7068C74.7694 13.8231 74.8238 13.9874 74.7999 14.15V22.35C74.7854 22.4279 74.8101 22.5079 74.8661 22.5638C74.9221 22.6198 75.0021 22.6446 75.0799 22.63H76.7599C76.9499 22.63 77.0499 22.54 77.0499 22.35V18.74C77.6572 19.1785 78.3911 19.4067 79.1399 19.39C80.2021 19.4328 81.2356 19.0389 81.9999 18.3C83.467 16.7255 83.467 14.2846 81.9999 12.71ZM78.9599 17.5895C78.4388 17.5895 77.9402 17.3766 77.5799 17C77.2187 16.574 77.0296 16.0283 77.0499 15.47C77.0267 14.9114 77.2161 14.3646 77.5799 13.94C77.9402 13.5635 78.4388 13.3505 78.9599 13.3505C79.4811 13.3505 79.9796 13.5635 80.3399 13.94C80.7183 14.3573 80.9161 14.9074 80.8899 15.47C80.9128 16.0322 80.7155 16.5811 80.3399 17C79.9796 17.3766 79.4811 17.5895 78.9599 17.5895Z" fill="#696871"/>
<path d="M87.8199 19.39C86.9222 19.4269 86.0321 19.2122 85.2499 18.77C84.6142 18.3871 84.1873 17.7357 84.0899 17C84.0899 16.8 84.1599 16.7 84.3799 16.7H85.8499C85.9925 16.7056 86.1199 16.7905 86.1799 16.92C86.3899 17.46 86.9399 17.73 87.8199 17.73C88.1269 17.744 88.4325 17.6822 88.7099 17.55C88.905 17.4619 89.0357 17.2736 89.0499 17.06C89.0499 16.8 88.8899 16.62 88.5699 16.5C88.1904 16.3737 87.798 16.2898 87.3999 16.25C86.9284 16.1966 86.4608 16.1131 85.9999 16C85.5517 15.8986 85.1442 15.6652 84.8299 15.33C84.4558 14.8695 84.2896 14.2743 84.3711 13.6866C84.4526 13.0988 84.7745 12.5713 85.2599 12.23C85.9807 11.7709 86.8264 11.5472 87.6799 11.59C88.5063 11.5621 89.3239 11.7665 90.0399 12.18C90.6243 12.511 91.0284 13.0877 91.1399 13.75C91.1399 13.95 91.0499 14.05 90.8699 14.05H89.3899C89.2624 14.0576 89.1433 13.9861 89.0899 13.87C88.991 13.6332 88.8048 13.4434 88.5699 13.34C88.3049 13.2014 88.0089 13.1325 87.7099 13.14C87.4168 13.1241 87.1244 13.1825 86.8599 13.31C86.6693 13.3836 86.5426 13.5657 86.5399 13.77C86.553 14.0507 86.7477 14.2901 87.0199 14.36C87.4039 14.5047 87.8032 14.6054 88.2099 14.66C88.6776 14.7216 89.1416 14.8083 89.5999 14.92C90.0481 15.0215 90.4556 15.2548 90.7699 15.59C91.1095 15.963 91.286 16.4563 91.2599 16.96C91.2775 17.6632 90.9243 18.3239 90.3299 18.7C89.5828 19.1797 88.7073 19.4203 87.8199 19.39Z" fill="#696871"/>
<path d="M101.83 18.89C101.841 18.9617 101.823 19.035 101.78 19.0934C101.737 19.1517 101.672 19.1901 101.6 19.2C101.235 19.3192 100.854 19.3832 100.47 19.39C99.6969 19.47 98.9384 19.1401 98.4699 18.52C97.7635 19.1273 96.8502 19.4389 95.9199 19.39C95.0465 19.4302 94.1967 19.0998 93.5799 18.48C92.9679 17.8311 92.6465 16.9609 92.6899 16.07V12.16C92.6899 11.97 92.7799 11.87 92.9699 11.87H94.6499C94.8399 11.87 94.9299 11.97 94.9299 12.16V15.77C94.9116 16.2198 95.0654 16.6596 95.3599 17C95.6573 17.3155 96.0767 17.4869 96.5099 17.47C96.9526 17.4894 97.3847 17.3309 97.7099 17.03C98.018 16.7126 98.1809 16.2818 98.1599 15.84V12.16C98.1599 11.97 98.2499 11.87 98.4399 11.87H100.14C100.33 11.87 100.42 11.97 100.42 12.16V16.87C100.42 17.26 100.59 17.45 100.92 17.45C101.075 17.456 101.23 17.4391 101.38 17.4C101.457 17.3785 101.539 17.3933 101.603 17.4401C101.667 17.4869 101.707 17.5605 101.71 17.64L101.83 18.89Z" fill="#696871"/>
<path d="M117.72 18.89C117.738 18.9625 117.723 19.0393 117.678 19.0993C117.634 19.1593 117.565 19.1962 117.49 19.2C117.118 19.3209 116.731 19.3849 116.34 19.39C115.745 19.4207 115.158 19.2517 114.67 18.91C114.242 18.6127 113.99 18.1212 114 17.6V15.25C114.021 14.8016 113.871 14.3619 113.58 14.02C113.296 13.7035 112.885 13.531 112.46 13.55C112.077 13.5355 111.708 13.6977 111.46 13.99C111.196 14.3251 111.061 14.7439 111.08 15.17V18.86C111.08 19.05 110.99 19.15 110.8 19.15H109.11C109.03 19.1599 108.951 19.1325 108.894 19.0758C108.837 19.0192 108.81 18.9395 108.82 18.86V15.25C108.842 14.8065 108.703 14.3699 108.43 14.02C108.183 13.7224 107.817 13.5502 107.43 13.55C107.017 13.5334 106.617 13.6934 106.33 13.99C106.044 14.3144 105.897 14.7381 105.92 15.17V18.86C105.93 18.9395 105.902 19.0192 105.846 19.0758C105.789 19.1325 105.709 19.1599 105.63 19.15H104C103.81 19.15 103.72 19.05 103.72 18.86V14.15C103.744 13.9874 103.689 13.823 103.573 13.7068C103.457 13.5906 103.293 13.5361 103.13 13.56H102.8C102.58 13.56 102.47 13.48 102.47 13.32V12.14C102.459 11.9896 102.555 11.8521 102.7 11.81C103.046 11.6843 103.412 11.6233 103.78 11.63C104.501 11.5686 105.193 11.9264 105.56 12.55C106.242 11.9036 107.162 11.5703 108.1 11.63C109.014 11.5854 109.894 11.9791 110.47 12.69C111.14 11.9616 112.102 11.5726 113.09 11.63C113.972 11.5887 114.832 11.9187 115.46 12.54C116.074 13.1877 116.396 14.0587 116.35 14.95V16.88C116.35 17.26 116.52 17.45 116.84 17.45C116.995 17.4572 117.15 17.4404 117.3 17.4C117.507 17.4 117.617 17.48 117.63 17.64L117.72 18.89Z" fill="#696871"/>
<path fill-rule="evenodd" clip-rule="evenodd" d="M0.459927 10.57C1.97801 4.46836 7.45725 0.185303 13.7449 0.185303C20.0326 0.185303 25.5118 4.46836 27.0299 10.57H25.8299C23.8056 10.5402 21.8228 11.1452 20.1599 12.3C20.064 12.3695 19.9638 12.433 19.8599 12.49H19.7199C19.6161 12.433 19.5159 12.3695 19.4199 12.3C15.9884 9.99254 11.5014 9.99254 8.06993 12.3C7.97396 12.3695 7.87377 12.433 7.76993 12.49H7.62993C7.52609 12.433 7.42589 12.3695 7.32993 12.3C5.66706 11.1452 3.68424 10.5402 1.65993 10.57H0.459927ZM23.6699 16.84C24.2859 16.3603 25.0494 16.1093 25.8299 16.13H27.4399V12.92H25.8299C24.4552 12.9034 23.1118 13.3313 21.9999 14.14C20.7156 15.0869 18.9643 15.0869 17.6799 14.14C15.3449 12.5146 12.2449 12.5146 9.90993 14.14C8.62558 15.0869 6.87427 15.0869 5.58993 14.14C4.46433 13.321 3.10172 12.8925 1.70993 12.92H0.0499268V16.13H1.65993C2.44044 16.1093 3.20392 16.3603 3.81993 16.84C6.15087 18.4666 9.24898 18.4666 11.5799 16.84C12.1967 16.3618 12.9597 16.111 13.7399 16.13C14.5207 16.1076 15.2847 16.3588 15.8999 16.84C18.2349 18.4655 21.3349 18.4655 23.6699 16.84ZM25.8299 21.87C25.0494 21.8493 24.2859 22.1003 23.6699 22.58C21.3349 24.2055 18.2349 24.2055 15.8999 22.58C15.2847 22.0988 14.5207 21.8476 13.7399 21.87C12.9597 21.851 12.1967 22.1018 11.5799 22.58C9.24898 24.2066 6.15087 24.2066 3.81993 22.58C3.20392 22.1003 2.44044 21.8493 1.65993 21.87H0.0499268V18.66H1.70993C3.10172 18.6325 4.46433 19.061 5.58993 19.88C6.87427 20.8269 8.62558 20.8269 9.90993 19.88C12.2449 18.2546 15.3449 18.2546 17.6799 19.88C18.9643 20.8269 20.7156 20.8269 21.9999 19.88C23.1118 19.0713 24.4552 18.6434 25.8299 18.66H27.4399V21.87H25.8299Z" fill="#696871"/>
</svg>
